<?xml version="1.0" encoding="UTF-8" standalone="no"?>
<!-- Uploaded to: SVG Repo, www.svgrepo.com, Generator: SVG Repo Mixer Tools -->

<svg
   fill="#000000"
   width="800px"
   height="800px"
   viewBox="0 0 24 24"
   version="1.1"
   id="svg4394"
   sodipodi:docname="trash.svg"
   inkscape:version="1.2.1 (9c6d41e, 2022-07-14)"
   xmlns:inkscape="http://www.inkscape.org/namespaces/inkscape"
   xmlns:sodipodi="http://sodipodi.sourceforge.net/DTD/sodipodi-0.dtd"
   xmlns="http://www.w3.org/2000/svg"
   xmlns:svg="http://www.w3.org/2000/svg">
  <defs
     id="defs4398" />
  <sodipodi:namedview
     id="namedview4396"
     pagecolor="#ffffff"
     bordercolor="#000000"
     borderopacity="0.25"
     inkscape:showpageshadow="2"
     inkscape:pageopacity="0.0"
     inkscape:pagecheckerboard="0"
     inkscape:deskcolor="#d1d1d1"
     showgrid="false"
     inkscape:zoom="0.295"
     inkscape:cx="-76.271186"
     inkscape:cy="400"
     inkscape:window-width="1309"
     inkscape:window-height="456"
     inkscape:window-x="0"
     inkscape:window-y="1136"
     inkscape:window-maximized="0"
     inkscape:current-layer="svg4394" />
  <path
     d="M20 6h-3.155a.949.949 0 0 0-.064-.125l-1.7-2.124A1.989 1.989 0 0 0 13.519 3h-3.038a1.987 1.987 0 0 0-1.562.75l-1.7 2.125A.949.949 0 0 0 7.155 6H4a1 1 0 0 0 0 2h1v11a2 2 0 0 0 1.994 2h10.011A2 2 0 0 0 19 19V8h1a1 1 0 0 0 0-2zm-9.519-1h3.038l.8 1H9.681zm6.524 14H7V8h10z"
     id="path4390"
     style="fill:#ffffff" />
  <path
     d="M14 18a1 1 0 0 1-1-1v-7a1 1 0 0 1 2 0v7a1 1 0 0 1-1 1zM10 18a1 1 0 0 1-1-1v-7a1 1 0 0 1 2 0v7a1 1 0 0 1-1 1z"
     id="path4392"
     style="fill:#ffffff" />
</svg>
