<?xml version="1.0" encoding="UTF-8" standalone="no"?>
<!-- Uploaded to: SVG Repo, www.svgrepo.com, Generator: SVG Repo Mixer Tools -->

<svg
   width="800px"
   height="800px"
   viewBox="0 0 24 24"
   fill="none"
   version="1.1"
   id="svg4262"
   sodipodi:docname="unlock.svg"
   inkscape:version="1.2.1 (9c6d41e, 2022-07-14)"
   xmlns:inkscape="http://www.inkscape.org/namespaces/inkscape"
   xmlns:sodipodi="http://sodipodi.sourceforge.net/DTD/sodipodi-0.dtd"
   xmlns="http://www.w3.org/2000/svg"
   xmlns:svg="http://www.w3.org/2000/svg">
  <defs
     id="defs4266" />
  <sodipodi:namedview
     id="namedview4264"
     pagecolor="#ffffff"
     bordercolor="#000000"
     borderopacity="0.25"
     inkscape:showpageshadow="2"
     inkscape:pageopacity="0.0"
     inkscape:pagecheckerboard="0"
     inkscape:deskcolor="#d1d1d1"
     showgrid="false"
     inkscape:zoom="0.295"
     inkscape:cx="-76.271186"
     inkscape:cy="400"
     inkscape:window-width="1309"
     inkscape:window-height="456"
     inkscape:window-x="0"
     inkscape:window-y="1136"
     inkscape:window-maximized="0"
     inkscape:current-layer="svg4262" />
  <path
     fill-rule="evenodd"
     clip-rule="evenodd"
     d="M8 6C8 3.79086 9.79086 2 12 2C14.2091 2 16 3.79086 16 6V6.23077C16 6.78305 15.5523 7.23077 15 7.23077C14.4477 7.23077 14 6.78305 14 6.23077V6C14 4.89543 13.1046 4 12 4C10.8954 4 10 4.89543 10 6V9C10 9.55228 9.55228 10 9 10C8.44772 10 8 9.55228 8 9V6Z"
     fill="#000000"
     id="path4258"
     style="fill:#ffffff" />
  <path
     fill-rule="evenodd"
     clip-rule="evenodd"
     d="M12 8C8.13401 8 5 11.134 5 15C5 18.866 8.13401 22 12 22C15.866 22 19 18.866 19 15C19 11.134 15.866 8 12 8ZM12 13C12.5523 13 13 13.4477 13 14V16C13 16.5523 12.5523 17 12 17C11.4477 17 11 16.5523 11 16V14C11 13.4477 11.4477 13 12 13Z"
     fill="#000000"
     id="path4260"
     style="fill:#ffffff" />
</svg>
